{"title":"Need For Speed 2014 1080p BluRay x265","uid":11056347,"size":3113926155,"categoryP":"video","categoryS":"hd___movies","magnet":"?xt=urn:btih:9bc2e21368e8f473b3e800f061f4adff6e1e7198&amp;dn=Need+For+Speed+2014+1080p+BluRay+x265&amp;tr=udp%3A%2F%2Ftracker.openbittorrent.com%3A80&amp;tr=udp%3A%2F%2Fopen.demonii.com%3A1337&amp;tr=udp%3A%2F%2Ftracker.coppersurfer.tk%3A6969&amp;tr=udp%3A%2F%2Fexodus.desync.com%3A6969","seeders":0,"leechers":0,"uploader":"atm50","files":-1,"time":1411118732,"description":"Fresh from prison, a street racer who was framed by a wealthy business associate joins a cross country race with revenge in mind. His ex-partner, learning of the plan, places a massive bounty on his head as the race begins.\n\nSource: Need.For.Speed.2014.1080p.BluRay.x264-SPARKS\n\nFormat                         : Matroska\nFile size                      : 2.82 GiB\nDuration                       : 2h 10mn\nOverall bit rate               : 3 084 Kbps\n\nVideo\n\nFormat                         : HEVC [X265]\nBit rate                       : 2 698 Kbps\nMaximum bit rate               : 32.9 Mbps\nWidth                          : 1 920 pixels\nHeight                         : 808 pixels\nDisplay aspect ratio           : 2.40:1\nFrame rate                     : 23.976 fps\nStream size                    : 2.46 GiB (87%)\n\nAudio\n\nFormat                         : AC-3\nBit rate                       : 384 Kbps\nChannel(s)                     : 6 channels (5.1)\nSampling rate                  : 48.0 KHz\nBit depth                      : 16 bits\nCompression mode               : Lossy\nStream size                    : 359 MiB (12%)\n\nSubtitles: English (External)","torrent":{"xt":"urn:btih:9bc2e21368e8f473b3e800f061f4adff6e1e7198","amp;dn":"Need+For+Speed+2014+1080p+BluRay+x265","amp;tr":["udp%3A%2F%2Ftracker.openbittorrent.com%3A80","udp%3A%2F%2Fopen.demonii.com%3A1337","udp%3A%2F%2Ftracker.coppersurfer.tk%3A6969","udp%3A%2F%2Fexodus.desync.com%3A6969"],"infoHash":"9bc2e21368e8f473b3e800f061f4adff6e1e7198","infoHashBuffer":{"type":"Buffer","data":[155,194,226,19,104,232,244,115,179,232,0,240,97,244,173,255,110,30,113,152]},"announce":[],"urlList":[]}}